HIERARCHY
ROOT Hips
{
	OFFSET -0.001795 -0.223333 0.028219
	CHANNELS 6 Xposition Yposition Zposition Zrotation Yrotation Xrotation 
	JOINT LeftUpLeg
	{
		OFFSET 0.069520 -0.091406 -0.006815
		CHANNELS 3 Zrotation Yrotation Xrotation
		JOINT LeftLeg
		{
			OFFSET 0.034277 -0.375199 -0.004496
			CHANNELS 3 Zrotation Yrotation Xrotation
			JOINT LeftFoot
			{
				OFFSET -0.013596 -0.397961 -0.043693
				CHANNELS 3 Zrotation Yrotation Xrotation
				JOINT LeftToe
				{
					OFFSET 0.026358 -0.055791 0.119288
					CHANNELS 3 Zrotation Yrotation Xrotation
					End Site
					{
						OFFSET 0.000000 0.000000 0.000000
					}
				}
			}
		}
	}
	JOINT RightUpLeg
	{
		OFFSET -0.067670 -0.090522 -0.004320
		CHANNELS 3 Zrotation Yrotation Xrotation
		JOINT RightLeg
		{
			OFFSET -0.038290 -0.382569 -0.008850
			CHANNELS 3 Zrotation Yrotation Xrotation
			JOINT RightFoot
			{
				OFFSET 0.015774 -0.398415 -0.042312
				CHANNELS 3 Zrotation Yrotation Xrotation
				JOINT RightToe
				{
					OFFSET -0.025372 -0.048144 0.123348
					CHANNELS 3 Zrotation Yrotation Xrotation
					End Site
					{
						OFFSET 0.000000 0.000000 0.000000
					}
				}
			}
		}
	}
	JOINT Spine
	{
		OFFSET -0.002533 0.108963 -0.026696
		CHANNELS 3 Zrotation Yrotation Xrotation
		JOINT Spine1
		{
			OFFSET 0.005487 0.135180 0.001092
			CHANNELS 3 Zrotation Yrotation Xrotation
			JOINT Spine2
			{
				OFFSET 0.001457 0.052922 0.025425
				CHANNELS 3 Zrotation Yrotation Xrotation
				JOINT Neck
				{
					OFFSET -0.002778 0.213870 -0.042857
					CHANNELS 3 Zrotation Yrotation Xrotation
					JOINT Head
					{
						OFFSET 0.005152 0.064970 0.051349
						CHANNELS 3 Zrotation Yrotation Xrotation
						End Site
						{
							OFFSET 0.000000 0.000000 0.000000
						}
					}
				}
				JOINT LeftShoulder
				{
					OFFSET 0.078845 0.121749 -0.034090
					CHANNELS 3 Zrotation Yrotation Xrotation
					JOINT LeftArm
					{
						OFFSET 0.090977 0.030469 -0.008868
						CHANNELS 3 Zrotation Yrotation Xrotation
						JOINT LeftForeArm
						{
							OFFSET 0.259612 -0.012772 -0.027456
							CHANNELS 3 Zrotation Yrotation Xrotation
							JOINT LeftHand
							{
								OFFSET 0.249234 0.008986 -0.001171
								CHANNELS 3 Zrotation Yrotation Xrotation
								End Site
								{
									OFFSET 0.000000 0.000000 0.000000
								}
							}
						}
					}
				}
				JOINT RightShoulder
				{
					OFFSET -0.081759 0.118833 -0.038615
					CHANNELS 3 Zrotation Yrotation Xrotation
					JOINT RightArm
					{
						OFFSET -0.096012 0.032551 -0.009143
						CHANNELS 3 Zrotation Yrotation Xrotation
						JOINT RightForeArm
						{
							OFFSET -0.253742 -0.013329 -0.021401
							CHANNELS 3 Zrotation Yrotation Xrotation
							JOINT RightHand
							{
								OFFSET -0.255298 0.007772 -0.005559
								CHANNELS 3 Zrotation Yrotation Xrotation
								End Site
								{
									OFFSET 0.000000 0.000000 0.000000
								}
							}
						}
					}
				}
			}
		}
	}
}
MOTION
Frames: 17
Frame Time: 0.050000
-0.641636 0.919437 0.772544 -2.409518 0.142829 2.863797 4.732826 -1.150620 -21.139470 -7.297160 0.465775 -10.685183 71.398229 28.544515 113.368631 0.000000 0.000000 0.000000 3.197709 -1.543129 11.077332 -0.166691 -0.052706 -1.710725 -4.268559 -11.500351 3.631733 0.000000 0.000000 0.000000 2.232363 -0.240678 3.242057 -2.310460 1.063108 8.584195 -0.594860 8.353816 -2.248163 -4.104470 4.433590 -22.377846 0.000000 0.000000 0.000000 -32.387169 -22.666635 8.078018 -29.597959 -10.732741 0.429451 -167.971105 -73.639990 166.132739 0.000000 0.000000 0.000000 29.682691 26.904069 19.357722 33.060912 15.277716 -0.020387 -106.303759 78.061629 -87.545608 0.000000 0.000000 0.000000 
-0.644229 0.915362 0.805915 -2.210669 2.987617 2.546163 1.789166 -1.941393 -23.402563 -3.883677 0.395108 -3.051601 76.968483 29.195528 112.573257 0.000000 0.000000 0.000000 4.232732 -2.131360 13.790968 -0.724918 -0.010105 -1.972224 -5.223983 -13.867839 5.193853 0.000000 0.000000 0.000000 2.170122 -0.253733 3.514338 -2.895383 1.298502 7.424649 -1.201998 12.461262 -2.500753 -2.109483 3.864793 -20.399681 0.000000 0.000000 0.000000 -32.978688 -23.057392 5.409345 -29.740012 -6.679304 0.342381 -157.189332 -69.824777 147.886983 0.000000 0.000000 0.000000 30.369453 25.857073 21.418102 32.095153 18.805380 0.127925 -91.035239 75.828230 -68.837975 0.000000 0.000000 0.000000 
-0.642884 0.907499 0.845164 -1.839364 6.331539 1.711376 -0.953069 -2.590929 -23.464225 -1.575816 0.086354 2.697845 21.099249 31.608371 35.796840 0.000000 0.000000 0.000000 5.221517 -3.010349 17.511024 -1.435348 0.045763 -2.337930 -6.464907 -16.687927 7.057814 0.000000 0.000000 0.000000 1.879587 -0.257162 3.880990 -3.020835 1.300244 5.937177 -1.235678 15.272441 -1.081153 -0.337466 3.376957 -19.751216 0.000000 0.000000 0.000000 -32.554893 -23.225235 3.366528 -30.596920 -3.243408 -0.010689 -152.022150 -66.528765 136.980002 0.000000 0.000000 0.000000 30.420716 25.494496 23.101950 30.398060 23.271909 0.541002 -83.778205 71.671267 -57.399253 0.000000 0.000000 0.000000 
-0.637051 0.899186 0.889941 -1.463259 9.727336 1.112099 -2.657956 -3.039361 -23.472720 -1.147874 -0.222753 9.023175 3.308148 8.362191 3.509527 0.000000 0.000000 0.000000 6.215092 -3.857557 20.123376 -2.332375 0.273719 -0.126507 -7.230585 -18.296735 9.151002 0.000000 0.000000 0.000000 0.527374 -0.197254 4.007829 -3.458783 1.446382 5.900180 -0.594062 16.910367 -1.048341 1.280891 2.944250 -20.512146 0.000000 0.000000 0.000000 -31.865363 -23.620325 2.017697 -29.669564 -0.728428 -0.143334 -150.237558 -65.476042 132.516092 0.000000 0.000000 0.000000 29.169608 24.965145 23.449621 31.548122 24.805668 0.841765 -80.469763 70.864762 -53.063198 0.000000 0.000000 0.000000 
-0.624768 0.893722 0.941163 -1.136780 14.250586 0.807368 -4.730845 -3.305575 -22.033634 -0.448547 -0.700757 13.592089 1.347532 1.150909 -2.688492 0.000000 0.000000 0.000000 6.806446 -4.504062 21.387753 -2.203637 0.487509 4.390932 -7.179893 -17.746102 14.593041 0.000000 0.000000 0.000000 -0.711816 -0.103569 3.005533 -3.148901 1.183680 5.496160 -0.207299 16.437654 0.363443 1.957689 2.576270 -18.894397 0.000000 0.000000 0.000000 -31.370790 -23.962837 1.625071 -29.181502 0.954388 -0.455815 -144.542821 -66.309280 124.975204 0.000000 0.000000 0.000000 31.260853 23.315113 23.897580 30.848981 24.068200 0.196805 -73.759755 72.517185 -49.033722 0.000000 0.000000 0.000000 
-0.605378 0.892623 0.996122 -0.161310 18.029467 1.165902 -6.971267 -3.316542 -19.870463 -0.229840 -1.140532 17.001651 1.947141 -2.122794 -8.444168 0.000000 0.000000 0.000000 5.279763 -3.606833 18.261102 -0.191652 0.090493 16.415755 -4.375032 -12.214125 21.903430 0.000000 0.000000 0.000000 -2.625744 -0.029642 2.077555 -2.264551 0.614165 5.579052 0.266184 16.042939 -0.336759 2.242937 2.408274 -18.277727 0.000000 0.000000 0.000000 -32.439817 -23.376436 0.474323 -26.585144 3.931468 -0.779163 -136.505551 -65.749897 114.636029 0.000000 0.000000 0.000000 32.223922 21.013486 23.072303 33.296182 19.438930 -0.876659 -71.571695 77.086916 -50.884775 0.000000 0.000000 0.000000 
-0.582079 0.893268 1.049197 0.926153 21.627251 0.612992 -8.995799 -2.550851 -14.832761 -0.049921 -1.335876 17.363432 2.309354 -6.031122 -12.727176 0.000000 0.000000 0.000000 2.707792 -2.106707 12.738180 0.288163 -1.644156 33.636137 2.187361 -2.468314 27.414696 0.000000 0.000000 0.000000 -3.638450 -0.049517 3.147435 -1.490497 0.042897 6.250911 -0.769269 13.971742 -1.925136 2.967553 1.854192 -17.741441 0.000000 0.000000 0.000000 -30.958358 -21.738211 -0.086708 -27.116435 4.358250 -1.058909 -128.193571 -66.391327 104.632862 0.000000 0.000000 0.000000 33.567131 18.418363 21.461233 34.952068 15.319354 -1.900563 -68.044773 81.208546 -51.218930 0.000000 0.000000 0.000000 
-0.559379 0.897093 1.097639 1.005394 26.389006 -0.064011 -10.358742 -1.444413 -8.988236 2.212935 -1.703769 15.389044 1.876933 -11.644461 -15.148110 0.000000 0.000000 0.000000 1.285599 -0.461804 3.538541 0.368063 -4.817014 45.396748 5.158260 -3.615224 45.391262 0.000000 0.000000 0.000000 -3.568750 -0.095313 4.173659 -0.011755 -0.835756 5.851340 -0.891390 11.086900 -1.600562 3.000990 1.943515 -18.527704 0.000000 0.000000 0.000000 -31.279729 -22.569346 0.702309 -26.579608 4.920071 -1.212125 -119.913322 -69.396009 98.576448 0.000000 0.000000 0.000000 34.895140 16.671257 20.396110 35.688043 11.436807 -3.003177 -64.441803 83.958629 -50.364301 0.000000 0.000000 0.000000 
-0.537614 0.903236 1.144042 0.108471 31.080057 -0.464378 -10.467837 -0.294395 -3.094003 5.494623 -1.772638 11.190599 0.779460 -17.391941 -15.808319 0.000000 0.000000 0.000000 -0.021617 0.522756 -5.949593 4.442420 -5.246223 32.747140 -39.932571 -31.746816 117.265040 0.000000 0.000000 0.000000 -2.429579 -0.142409 4.569879 1.457141 -1.805879 5.998272 -1.487375 7.970122 -1.557049 1.850069 2.442939 -18.138804 0.000000 0.000000 0.000000 -32.219537 -23.039033 1.184032 -26.598246 3.185420 -0.855524 -110.705253 -72.712652 92.243123 0.000000 0.000000 0.000000 33.980421 16.638965 19.610355 36.519536 9.137251 -3.449389 -59.792683 85.143660 -46.968453 0.000000 0.000000 0.000000 
-0.514712 0.910834 1.190892 -1.577786 36.308045 -2.064906 -9.068118 0.638215 3.813479 8.404006 -1.447740 6.075949 -1.490394 -23.101149 -14.488550 0.000000 0.000000 0.000000 -0.110793 0.741467 -13.363882 4.729684 -2.629167 16.989842 -108.922762 -21.720750 146.155586 0.000000 0.000000 0.000000 -1.520650 -0.219598 5.332293 3.451193 -3.032085 5.758460 -1.889782 5.465739 -1.040027 2.236609 2.396003 -18.838560 0.000000 0.000000 0.000000 -31.405618 -24.525282 2.183388 -29.363007 0.324693 -0.375598 -101.257945 -75.658188 84.511502 0.000000 0.000000 0.000000 33.475676 15.736269 18.812352 36.372886 9.161022 -3.473395 -48.798803 83.907320 -35.740155 0.000000 0.000000 0.000000 
-0.489242 0.913762 1.239568 -3.630148 39.935836 -3.333124 -7.027320 0.815658 9.493537 10.480696 -1.115391 1.935053 -3.213548 -26.295281 -13.322676 0.000000 0.000000 0.000000 0.800782 0.640896 -20.181538 2.845624 -1.803558 14.958674 -55.371928 -36.290321 94.104692 0.000000 0.000000 0.000000 -0.210291 -0.284455 5.558922 5.030343 -4.206492 6.206432 -2.383294 3.296578 -2.372971 2.159103 2.239730 -18.002981 0.000000 0.000000 0.000000 -31.694259 -24.715516 2.443641 -29.724743 -1.596888 0.115369 -95.297778 -77.494151 80.379048 0.000000 0.000000 0.000000 32.920003 14.806571 17.632546 36.466994 8.560726 -3.472796 -35.558542 84.209594 -23.767475 0.000000 0.000000 0.000000 
-0.460581 0.911575 1.290446 -4.742982 42.043328 -4.646218 -5.518013 0.517763 14.743825 11.408114 -0.999838 0.179805 -4.218471 -27.463015 -12.652641 0.000000 0.000000 0.000000 0.888128 0.283556 -23.635078 3.020193 -3.242272 22.068743 -0.371191 -1.557210 -4.174010 0.000000 0.000000 0.000000 0.672341 -0.375430 6.179832 5.915909 -4.930976 6.554432 -2.761642 1.749952 -3.411648 2.539970 1.833156 -17.210600 0.000000 0.000000 0.000000 -30.753738 -24.491406 2.691646 -29.919826 -4.590466 0.744592 -100.056797 -78.402182 85.791665 0.000000 0.000000 0.000000 31.395075 13.864351 15.955717 37.576601 8.746748 -3.202587 -30.566879 82.804819 -18.504173 0.000000 0.000000 0.000000 
-0.427340 0.905474 1.343879 -4.184010 41.962543 -3.896900 -5.412061 0.301822 18.822840 11.257852 -0.899724 -0.586565 -5.239185 -26.750605 -11.136565 0.000000 0.000000 0.000000 2.325862 0.546152 -25.283432 3.161165 -0.970053 6.282248 -3.125291 -5.525090 14.247818 0.000000 0.000000 0.000000 0.479406 -0.344735 5.911398 6.326624 -4.784840 5.334635 -2.608440 0.067498 -3.814360 2.206568 1.818361 -16.769543 0.000000 0.000000 0.000000 -30.122912 -23.921449 3.104765 -31.524786 -5.816549 0.829658 -107.897824 -79.337322 94.740831 0.000000 0.000000 0.000000 30.766044 14.753651 15.762276 37.223104 8.025815 -3.171016 -22.393961 82.340093 -11.531638 0.000000 0.000000 0.000000 
-0.390061 0.899621 1.400485 -3.369837 42.604999 -3.009727 -4.013442 -0.098993 20.075116 7.608713 -0.948326 3.478301 -7.081183 -24.905140 -7.512860 0.000000 0.000000 0.000000 2.806193 0.514548 -26.465043 2.756006 -0.851906 6.140435 -4.370075 -6.996824 21.839185 0.000000 0.000000 0.000000 1.067371 -0.201347 3.810557 5.469968 -4.554054 6.120673 -1.840041 -1.774477 -4.785801 0.071155 2.682502 -15.864837 0.000000 0.000000 0.000000 -31.569745 -21.967495 2.517981 -30.312692 -7.079016 0.993329 -110.444710 -77.370807 96.298740 0.000000 0.000000 0.000000 30.899813 14.919664 15.072329 35.476283 5.809275 -3.418284 -16.413178 82.552539 -6.966906 0.000000 0.000000 0.000000 
-0.350857 0.899120 1.459273 -3.652322 44.246949 -4.266974 -0.520836 -0.773458 18.115422 3.584117 -2.083486 14.884032 -13.459361 -24.531736 2.478735 0.000000 0.000000 0.000000 4.277183 0.921518 -24.903240 0.899003 -1.134442 13.772847 -5.205715 -8.844174 15.165488 0.000000 0.000000 0.000000 2.108926 -0.179588 3.126252 7.157338 -5.769421 6.442877 -4.093068 -1.413704 -5.125774 0.113980 2.747287 -15.884272 0.000000 0.000000 0.000000 -31.396241 -21.252825 1.307276 -31.775130 -8.042071 1.451834 -108.020908 -74.713235 90.178697 0.000000 0.000000 0.000000 30.880536 13.737087 14.796145 34.888530 5.971892 -3.413426 -11.832583 81.614753 -2.744307 0.000000 0.000000 0.000000 
-0.313286 0.905810 1.515514 -4.616624 43.527790 -6.300456 3.737618 -0.943218 11.663416 -3.668793 -3.974671 31.737903 -12.097974 -15.637150 7.618094 0.000000 0.000000 0.000000 6.141512 1.623652 -21.016589 0.477296 -1.603874 17.804733 -4.897960 -9.668347 9.011833 0.000000 0.000000 0.000000 2.666851 -0.174558 2.994217 6.476765 -5.439453 6.843042 -2.491336 -1.425359 -5.307080 0.071635 2.483756 -14.056046 0.000000 0.000000 0.000000 -32.043238 -20.621641 1.163247 -31.929096 -8.179166 1.424090 -102.515574 -72.441291 82.246810 0.000000 0.000000 0.000000 30.112718 14.300428 14.546260 34.019793 3.856552 -3.723560 -3.774657 81.304695 3.796029 0.000000 0.000000 0.000000 
-0.278798 0.915329 1.566612 -4.965756 41.932413 -7.592338 5.646502 -0.665227 4.021143 -6.686019 -4.812133 39.054666 -0.992685 -10.777383 -8.249213 0.000000 0.000000 0.000000 7.699386 1.913365 -15.100894 0.258521 -1.388778 16.954652 -4.272835 -9.509029 5.471177 0.000000 0.000000 0.000000 2.387380 -0.188173 3.434768 6.479208 -5.460024 7.096271 -2.259341 0.412188 -4.967278 1.192561 1.873136 -13.747355 0.000000 0.000000 0.000000 -32.687795 -21.771094 1.299166 -31.511755 -6.974753 1.310386 -102.573669 -70.872117 80.395088 0.000000 0.000000 0.000000 31.850891 13.490268 14.968473 33.252427 3.357402 -4.024015 -2.390473 82.432356 5.021692 0.000000 0.000000 0.000000 
